<svg width="25" height="24" viewBox="0 0 25 24" fill="none" xmlns="http://www.w3.org/2000/svg">
<g clip-path="url(#clip0_67_1209)">
<path d="M17.8 6C17.8 3.23858 15.5614 1 12.8 1C10.0386 1 7.80002 3.23858 7.80002 6M17.8 6H19.1087C21.1944 6 22.2373 6 22.8335 6.66616C23.4298 7.33231 23.3146 8.36879 23.0843 10.4417L22.7884 13.1043C22.3183 17.3356 22.0832 19.4513 20.6594 20.7256C19.2356 22 17.0904 22 12.8 22C8.50963 22 6.36443 22 4.94063 20.7256C3.51683 19.4513 3.28176 17.3356 2.81161 13.1043L2.51577 10.4417C2.28544 8.36879 2.17028 7.33231 2.76652 6.66616C3.36276 6 4.40561 6 6.49131 6H7.80002M17.8 6H7.80002M18.8 10H6.80002" stroke="white" stroke-width="1.5" stroke-linecap="round"/>
</g>
<defs>
<clipPath id="clip0_67_1209">
<rect width="24" height="24" fill="white" transform="translate(0.800003)"/>
</clipPath>
</defs>
</svg>
