<svg width="25" height="24" viewBox="0 0 25 24" fill="none" xmlns="http://www.w3.org/2000/svg">
<g clip-path="url(#clip0_67_1217)">
<path d="M2.12766 1.81808C2.02719 1.41624 1.61998 1.17193 1.21814 1.2724C0.816293 1.37287 0.571981 1.78007 0.672452 2.18192L2.12766 1.81808ZM6.1657 16.7854L6.61652 16.186L6.1657 16.7854ZM3.42135 10.2517L4.15069 10.0769L3.42135 10.2517ZM5.98579 16.6435L6.4636 16.0654L6.4636 16.0654L5.98579 16.6435ZM22.4192 10.7425L23.1486 10.9173L22.4192 10.7425ZM20.2898 16.3575L19.7644 15.8223L19.7644 15.8223L20.2898 16.3575ZM19.4404 17.0273L19.8384 17.663L19.4404 17.0273ZM22.3421 6.75597L22.8569 6.21052L22.3421 6.75597ZM22.7039 7.21465L23.3543 6.8412L22.7039 7.21465ZM14.4002 10.25C13.9859 10.25 13.6502 10.5858 13.6502 11C13.6502 11.4142 13.9859 11.75 14.4002 11.75L14.4002 10.25ZM17.4002 13.25C16.9859 13.25 16.6502 13.5858 16.6502 14C16.6502 14.4142 16.9859 14.75 17.4002 14.75V13.25ZM2.45279 6.21053V6.96053H18.8451V6.21053V5.46053H2.45279V6.21053ZM13.4838 17.7895V17.0395H12.9791V17.7895V18.5395H13.4838V17.7895ZM3.42135 10.2517L4.15069 10.0769L3.18213 6.03572L2.45279 6.21053L1.72344 6.38533L2.692 10.4265L3.42135 10.2517ZM2.45279 6.21053L3.18039 6.02861L2.12766 1.81808L1.40005 2L0.672452 2.18192L1.72519 6.39244L2.45279 6.21053ZM12.9791 17.7895V17.0395C11.1353 17.0395 9.81667 17.0383 8.79001 16.919C7.78232 16.8019 7.13806 16.5783 6.61652 16.186L6.1657 16.7854L5.71488 17.3848C6.52833 17.9966 7.46464 18.275 8.61684 18.4089C9.75006 18.5406 11.1707 18.5395 12.9791 18.5395V17.7895ZM3.42135 10.2517L2.692 10.4265C3.11349 12.1852 3.44345 13.5669 3.83564 14.6383C4.23441 15.7275 4.72341 16.5731 5.50798 17.2216L5.98579 16.6435L6.4636 16.0654C5.96057 15.6496 5.59297 15.0752 5.24422 14.1226C4.8889 13.152 4.58043 11.87 4.15069 10.0769L3.42135 10.2517ZM6.1657 16.7854L6.61652 16.186C6.56463 16.147 6.51364 16.1067 6.4636 16.0654L5.98579 16.6435L5.50798 17.2216C5.57569 17.2775 5.64468 17.332 5.71488 17.3848L6.1657 16.7854ZM13.4838 17.7895V18.5395C15.0484 18.5395 16.2775 18.5404 17.266 18.4404C18.2695 18.3389 19.0953 18.1283 19.8384 17.663L19.4404 17.0273L19.0424 16.3917C18.5683 16.6885 17.9956 16.859 17.115 16.948C16.2194 17.0386 15.0788 17.0395 13.4838 17.0395V17.7895ZM20.2898 16.3575L19.7644 15.8223C19.545 16.0376 19.303 16.2285 19.0424 16.3917L19.4404 17.0273L19.8384 17.663C20.1909 17.4423 20.5184 17.184 20.8152 16.8927L20.2898 16.3575ZM18.8451 6.21053V6.96053C19.8376 6.96053 20.5131 6.96185 21.0158 7.02318C21.5061 7.08301 21.7071 7.18794 21.8274 7.30143L22.3421 6.75597L22.8569 6.21052C22.3992 5.77856 21.8247 5.61076 21.1975 5.53423C20.5826 5.4592 19.7986 5.46053 18.8451 5.46053V6.21053ZM22.4192 10.7425L23.1486 10.9173C23.3708 9.99004 23.5548 9.22794 23.6252 8.61254C23.6969 7.98475 23.6677 7.38698 23.3543 6.8412L22.7039 7.21465L22.0535 7.5881C22.1358 7.7315 22.191 7.95145 22.1349 8.44219C22.0774 8.94532 21.9212 9.60257 21.6899 10.5677L22.4192 10.7425ZM22.3421 6.75597L21.8274 7.30143C21.9164 7.38541 21.9925 7.482 22.0535 7.5881L22.7039 7.21465L23.3543 6.8412C23.2202 6.60776 23.0527 6.39527 22.8569 6.21052L22.3421 6.75597ZM21.4002 14V13.25H17.4002V14V14.75H21.4002V14ZM22.3575 11L22.3575 10.25L14.4002 10.25L14.4002 11L14.4002 11.75L22.3575 11.75L22.3575 11ZM22.4192 10.7425L21.6899 10.5677C21.669 10.6548 21.6485 10.7405 21.6282 10.8251L22.3575 11L23.0868 11.1749C23.1071 11.0903 23.1277 11.0044 23.1486 10.9173L22.4192 10.7425ZM22.3575 11L21.6282 10.8251C21.3306 12.0658 21.099 13.0133 20.8567 13.7717L21.5711 14L22.2855 14.2283C22.548 13.4067 22.7926 12.4015 23.0868 11.1749L22.3575 11ZM21.5711 14L20.8567 13.7717C20.531 14.791 20.2105 15.3844 19.7644 15.8223L20.2898 16.3575L20.8152 16.8927C21.514 16.2067 21.9286 15.3453 22.2855 14.2283L21.5711 14ZM21.4002 14V14.75H21.5711V14V13.25H21.4002V14Z" fill="white"/>
<path d="M10.8738 20.9474C10.8738 21.5288 10.4026 22 9.82122 22C9.23986 22 8.76859 21.5288 8.76859 20.9474C8.76859 20.3661 9.23986 19.8948 9.82122 19.8948C10.4026 19.8948 10.8738 20.3661 10.8738 20.9474Z" fill="white"/>
<path d="M17.1896 20.9474C17.1896 21.5288 16.7184 22 16.137 22C15.5557 22 15.0844 21.5288 15.0844 20.9474C15.0844 20.3661 15.5557 19.8948 16.137 19.8948C16.7184 19.8948 17.1896 20.3661 17.1896 20.9474Z" fill="white"/>
</g>
<defs>
<clipPath id="clip0_67_1217">
<rect width="24" height="24" fill="white" transform="translate(0.400009)"/>
</clipPath>
</defs>
</svg>
