<svg width="24" height="24" viewBox="0 0 24 24" fill="none" xmlns="http://www.w3.org/2000/svg">
<g clip-path="url(#clip0_67_1271)">
<path d="M18.4702 18.3823L18.5715 17.6392L18.4702 18.3823ZM5.52979 18.3823L5.42846 17.6392L5.52979 18.3823ZM4.04348 2.44669L4.17764 3.18459L4.04348 2.44669ZM19.9565 2.44669L19.8224 3.18459L19.9565 2.44669ZM7.8181 22.2724C7.41625 22.3729 7.17193 22.7801 7.27239 23.1819C7.37285 23.5838 7.78006 23.8281 8.1819 23.7277L7.8181 22.2724ZM9.57465 22.6064L9.39274 21.8788L9.39274 21.8788L9.57465 22.6064ZM14.4254 22.6064L14.6073 21.8788L14.6073 21.8788L14.4254 22.6064ZM15.8181 23.7277C16.2199 23.8281 16.6271 23.5838 16.7276 23.1819C16.8281 22.7801 16.5837 22.3729 16.1819 22.2724L15.8181 23.7277ZM12 22.3078L12 23.0578L12 22.3078ZM23 6.09342H22.25V14.4283H23H23.75V6.09342H23ZM1 14.4283H1.75V6.09342H1H0.25V14.4283H1ZM4.04348 2.44669L4.17764 3.18459C9.35015 2.24413 14.6499 2.24413 19.8224 3.18459L19.9565 2.44669L20.0907 1.70878C14.7407 0.736069 9.25925 0.736069 3.90932 1.70878L4.04348 2.44669ZM1 14.4283H0.25C0.25 17.3011 2.78473 19.5136 5.63113 19.1255L5.52979 18.3823L5.42846 17.6392C3.4827 17.9046 1.75 16.3921 1.75 14.4283H1ZM23 14.4283H22.25C22.25 16.3921 20.5173 17.9046 18.5715 17.6392L18.4702 18.3823L18.3689 19.1255C21.2153 19.5136 23.75 17.3011 23.75 14.4283H23ZM23 6.09342H23.75C23.75 3.93965 22.2097 2.09406 20.0907 1.70878L19.9565 2.44669L19.8224 3.18459C21.2282 3.44019 22.25 4.66458 22.25 6.09342H23ZM1 6.09342H1.75C1.75 4.66458 2.77185 3.44019 4.17764 3.18459L4.04348 2.44669L3.90932 1.70878C1.79028 2.09406 0.25 3.93965 0.25 6.09342H1ZM8 23L8.1819 23.7277L9.75655 23.334L9.57465 22.6064L9.39274 21.8788L7.8181 22.2724L8 23ZM14.4254 22.6064L14.2435 23.334L15.8181 23.7277L16 23L16.1819 22.2724L14.6073 21.8788L14.4254 22.6064ZM12 22H12.75V19H12H11.25V22H12ZM18.4702 18.3823L18.5715 17.6392C16.3911 17.3419 14.1956 17.1932 12 17.1932L12 17.9432L12 18.6932C14.1278 18.6932 16.2557 18.8373 18.3689 19.1255L18.4702 18.3823ZM12 17.9432L12 17.1932C9.80444 17.1932 7.60888 17.3419 5.42846 17.6392L5.52979 18.3823L5.63113 19.1255C7.74431 18.8373 9.87215 18.6932 12 18.6932L12 17.9432ZM12 19H12.75V17.9432H12H11.25V19H12ZM9.57465 22.6064L9.75655 23.334C10.493 23.1499 11.2465 23.0578 12 23.0578L12 22.3078L12 21.5578C11.1243 21.5578 10.2487 21.6648 9.39274 21.8788L9.57465 22.6064ZM12 22.3078L12 23.0578C12.7535 23.0578 13.507 23.1499 14.2435 23.334L14.4254 22.6064L14.6073 21.8788C13.7513 21.6648 12.8757 21.5578 12 21.5578L12 22.3078ZM12 22H11.25V22.3078H12H12.75V22H12Z" fill="white"/>
</g>
<defs>
<clipPath id="clip0_67_1271">
<rect width="24" height="24" fill="white"/>
</clipPath>
</defs>
</svg>
