<svg width="25" height="24" viewBox="0 0 25 24" fill="none" xmlns="http://www.w3.org/2000/svg">
<path d="M2.19995 12L1.45749 12.1061L1.46473 12.1568L1.47881 12.206L2.19995 12ZM8.62324 5.41035L8.31864 6.09571L8.31864 6.09571L8.62324 5.41035ZM9.15423 5.64635L9.45883 4.96099L9.45883 4.96099L9.15423 5.64635ZM11.1617 6.41942L11.0059 7.15307L11.1617 6.41942ZM15.2457 5.64635L14.9411 4.96099L14.9411 4.96099L15.2457 5.64635ZM13.2382 6.41942L13.394 7.15307L13.2382 6.41942ZM15.7599 17.5377L16.3908 17.1321L16.3908 17.1321L15.7599 17.5377ZM8.49464 17.7638L7.86375 17.3582L7.86375 17.3582L8.49464 17.7638ZM3.64215 17.0477L4.36329 16.8417L3.64215 17.0477ZM21.5905 16.2662L20.848 16.1601L20.848 16.1601L21.5905 16.2662ZM22.4236 10.4344L23.1661 10.5405L23.1661 10.5405L22.4236 10.4344ZM8.86901 17.1815L9.49989 17.587L9.49989 17.587L8.86901 17.1815ZM15.5309 17.1815L14.9 17.587L14.9 17.587L15.5309 17.1815ZM15.7767 5.41035L16.0813 6.09571L16.0813 6.09571L15.7767 5.41035ZM1.9763 10.4344L1.23384 10.5405L1.9763 10.4344ZM5.19995 10.25C4.78573 10.25 4.44995 10.5858 4.44995 11C4.44995 11.4142 4.78573 11.75 5.19995 11.75V10.25ZM9.19995 11.75C9.61416 11.75 9.94995 11.4142 9.94995 11C9.94995 10.5858 9.61416 10.25 9.19995 10.25V11.75ZM6.44995 13C6.44995 13.4142 6.78573 13.75 7.19995 13.75C7.61416 13.75 7.94995 13.4142 7.94995 13H6.44995ZM7.94995 9C7.94995 8.58579 7.61416 8.25 7.19995 8.25C6.78573 8.25 6.44995 8.58579 6.44995 9H7.94995ZM3.64215 17.0477L4.36329 16.8417L2.92109 11.794L2.19995 12L1.47881 12.206L2.92101 17.2537L3.64215 17.0477ZM2.19995 12L2.94241 11.8939L2.71876 10.3284L1.9763 10.4344L1.23384 10.5405L1.45749 12.1061L2.19995 12ZM8.86901 17.1815L8.23812 16.7759L7.86375 17.3582L8.49464 17.7638L9.12552 18.1694L9.49989 17.587L8.86901 17.1815ZM15.7599 17.5377L16.3908 17.1321L16.1618 16.7759L15.5309 17.1815L14.9 17.587L15.129 17.9433L15.7599 17.5377ZM8.62324 5.41035L8.31864 6.09571L8.84962 6.3317L9.15423 5.64635L9.45883 4.96099L8.92785 4.725L8.62324 5.41035ZM15.2457 5.64635L15.5503 6.33171L16.0813 6.09571L15.7767 5.41035L15.472 4.725L14.9411 4.96099L15.2457 5.64635ZM6.68957 5V5.75C7.2508 5.75 7.80578 5.86778 8.31864 6.09571L8.62324 5.41035L8.92785 4.725C8.2232 4.41182 7.46068 4.25 6.68957 4.25V5ZM9.15423 5.64635L8.84962 6.3317C9.81677 6.76155 10.3979 7.024 11.0059 7.15307L11.1617 6.41942L11.3174 5.68577C10.8992 5.597 10.4842 5.41669 9.45883 4.96099L9.15423 5.64635ZM15.2457 5.64635L14.9411 4.96099C13.9157 5.41669 13.5006 5.597 13.0825 5.68577L13.2382 6.41942L13.394 7.15307C14.002 7.024 14.5831 6.76155 15.5503 6.3317L15.2457 5.64635ZM11.1617 6.41942L11.0059 7.15307C11.7932 7.32019 12.6067 7.32019 13.394 7.15307L13.2382 6.41942L13.0825 5.68577C12.5006 5.80929 11.8993 5.80929 11.3174 5.68577L11.1617 6.41942ZM18.4383 19V18.25C17.6101 18.25 16.8387 17.8288 16.3908 17.1321L15.7599 17.5377L15.129 17.9433C15.8529 19.0693 17.0997 19.75 18.4383 19.75V19ZM8.49464 17.7638L7.86375 17.3582C7.50646 17.914 6.89108 18.25 6.23037 18.25V19V19.75C7.40148 19.75 8.49223 19.1545 9.12552 18.1694L8.49464 17.7638ZM3.64215 17.0477L2.92101 17.2537C3.34317 18.7313 4.69368 19.75 6.23037 19.75V19V18.25C5.3634 18.25 4.60147 17.6753 4.36329 16.8417L3.64215 17.0477ZM21.5905 16.2662L20.848 16.1601C20.6767 17.3593 19.6497 18.25 18.4383 18.25V19V19.75C20.3962 19.75 22.0561 18.3104 22.333 16.3722L21.5905 16.2662ZM22.4236 10.4344L23.1661 10.5405C23.6404 7.22043 21.0641 4.25 17.7103 4.25V5V5.75C20.1513 5.75 22.0263 7.91195 21.6811 10.3284L22.4236 10.4344ZM8.86901 17.1815L9.49989 17.587C10.7634 15.6216 13.6365 15.6216 14.9 17.587L15.5309 17.1815L16.1618 16.7759C14.3078 13.8919 10.0921 13.8919 8.23812 16.7759L8.86901 17.1815ZM15.7767 5.41035L16.0813 6.09571C16.5941 5.86778 17.1491 5.75 17.7103 5.75V5V4.25C16.9392 4.25 16.1767 4.41182 15.472 4.725L15.7767 5.41035ZM1.9763 10.4344L2.71876 10.3284C2.37355 7.91195 4.2486 5.75 6.68957 5.75V5V4.25C3.33578 4.25 0.759538 7.22043 1.23384 10.5405L1.9763 10.4344ZM7.19995 13H7.94995V9H7.19995H6.44995V13H7.19995ZM22.4236 10.4344L21.6811 10.3284L20.848 16.1601L21.5905 16.2662L22.333 16.3722L23.1661 10.5405L22.4236 10.4344ZM5.19995 11V11.75H7.19995V11V10.25H5.19995V11ZM7.19995 11V11.75H9.19995V11V10.25H7.19995V11Z" fill="white"/>
<path d="M18.2 9C18.2 9.55228 17.7523 10 17.2 10C16.6477 10 16.2 9.55228 16.2 9C16.2 8.44772 16.6477 8 17.2 8C17.7523 8 18.2 8.44772 18.2 9Z" fill="white"/>
<path d="M16.2 11C16.2 11.5523 15.7523 12 15.2 12C14.6477 12 14.2 11.5523 14.2 11C14.2 10.4477 14.6477 10 15.2 10C15.7523 10 16.2 10.4477 16.2 11Z" fill="white"/>
<path d="M20.2 11C20.2 11.5523 19.7523 12 19.2 12C18.6477 12 18.2 11.5523 18.2 11C18.2 10.4477 18.6477 10 19.2 10C19.7523 10 20.2 10.4477 20.2 11Z" fill="white"/>
<path d="M18.2 13C18.2 13.5523 17.7523 14 17.2 14C16.6477 14 16.2 13.5523 16.2 13C16.2 12.4477 16.6477 12 17.2 12C17.7523 12 18.2 12.4477 18.2 13Z" fill="white"/>
</svg>
