<svg width="25" height="24" viewBox="0 0 25 24" fill="none" xmlns="http://www.w3.org/2000/svg">
<path d="M20.4716 11.5458L19.7526 11.3325L19.7526 11.3325L20.4716 11.5458ZM19.4891 14.8579L20.2081 15.0712L20.2081 15.0712L19.4891 14.8579ZM5.71095 14.8579L6.42998 14.6446L6.42998 14.6446L5.71095 14.8579ZM4.72841 11.5458L4.00938 11.7591L4.00938 11.7591L4.72841 11.5458ZM9.58522 19.8049L9.79271 19.0841L9.79271 19.0841L9.58522 19.8049ZM6.75545 17.6927L6.12349 18.0966L6.12349 18.0966L6.75545 17.6927ZM18.4446 17.6927L19.0765 18.0966L19.0765 18.0966L18.4446 17.6927ZM15.6148 19.8049L15.4073 19.0841L15.4073 19.0841L15.6148 19.8049ZM21.473 8.00001V7.25001H20.8841L20.7444 7.82204L21.473 8.00001ZM3.72703 8.00001V7.25001H2.77178L2.99845 8.17798L3.72703 8.00001ZM2.60001 7.25001C2.18579 7.25001 1.85001 7.5858 1.85001 8.00001C1.85001 8.41422 2.18579 8.75001 2.60001 8.75001V7.25001ZM22.6 8.75001C23.0142 8.75001 23.35 8.41422 23.35 8.00001C23.35 7.5858 23.0142 7.25001 22.6 7.25001V8.75001ZM15.35 12C15.35 11.5858 15.0142 11.25 14.6 11.25C14.1858 11.25 13.85 11.5858 13.85 12H15.35ZM13.85 16C13.85 16.4142 14.1858 16.75 14.6 16.75C15.0142 16.75 15.35 16.4142 15.35 16H13.85ZM16.1304 3.46967C15.8375 3.17678 15.3626 3.17678 15.0697 3.46967C14.7768 3.76256 14.7768 4.23744 15.0697 4.53033L16.1304 3.46967ZM10.373 4.53035C10.6659 4.23745 10.6659 3.76258 10.373 3.46969C10.0801 3.17679 9.60521 3.17679 9.31232 3.46969L10.373 4.53035ZM11.35 12C11.35 11.5858 11.0142 11.25 10.6 11.25C10.1858 11.25 9.85001 11.5858 9.85001 12H11.35ZM9.85001 16C9.85001 16.4142 10.1858 16.75 10.6 16.75C11.0142 16.75 11.35 16.4142 11.35 16H9.85001ZM20.4716 11.5458L19.7526 11.3325L18.77 14.6446L19.4891 14.8579L20.2081 15.0712L21.1906 11.7591L20.4716 11.5458ZM5.71095 14.8579L6.42998 14.6446L5.44744 11.3325L4.72841 11.5458L4.00938 11.7591L4.99192 15.0712L5.71095 14.8579ZM12.6 20V19.25C10.9945 19.25 10.3442 19.2429 9.79271 19.0841L9.58522 19.8049L9.37773 20.5256C10.182 20.7571 11.0896 20.75 12.6 20.75V20ZM5.71095 14.8579L4.99192 15.0712C5.42149 16.5192 5.67278 17.3914 6.12349 18.0966L6.75545 17.6927L7.3874 17.2888C7.07836 16.8052 6.88657 16.1837 6.42998 14.6446L5.71095 14.8579ZM9.58522 19.8049L9.79271 19.0841C8.79927 18.7981 7.94413 18.1598 7.3874 17.2888L6.75545 17.6927L6.12349 18.0966C6.87671 19.2751 8.03366 20.1386 9.37773 20.5256L9.58522 19.8049ZM19.4891 14.8579L18.77 14.6446C18.3134 16.1837 18.1217 16.8052 17.8126 17.2888L18.4446 17.6927L19.0765 18.0966C19.5272 17.3913 19.7785 16.5192 20.2081 15.0712L19.4891 14.8579ZM12.6 20V20.75C14.1104 20.75 15.018 20.7571 15.8223 20.5256L15.6148 19.8049L15.4073 19.0841C14.8558 19.2429 14.2055 19.25 12.6 19.25V20ZM18.4446 17.6927L17.8126 17.2888C17.2559 18.1598 16.4007 18.7981 15.4073 19.0841L15.6148 19.8049L15.8223 20.5256C17.1664 20.1386 18.3233 19.2751 19.0765 18.0966L18.4446 17.6927ZM20.4716 11.5458L21.1906 11.7591C21.6122 10.3378 21.9609 9.16331 22.2016 8.17798L21.473 8.00001L20.7444 7.82204C20.5143 8.76385 20.178 9.89852 19.7526 11.3325L20.4716 11.5458ZM4.72841 11.5458L5.44744 11.3325C5.02206 9.89852 4.68567 8.76385 4.45561 7.82204L3.72703 8.00001L2.99845 8.17798C3.23914 9.1633 3.58776 10.3378 4.00938 11.7591L4.72841 11.5458ZM14.6 12H13.85V16H14.6H15.35V12H14.6ZM10.6 12H9.85001V16H10.6H11.35V12H10.6ZM15.6 4L15.0697 4.53033L19.0697 8.53034L19.6001 8.00001L20.1304 7.46968L16.1304 3.46967L15.6 4ZM19.6001 8.00001V8.75001H21.6V8.00001V7.25001H19.6001V8.00001ZM21.6 8.00001V8.75001H22.6V8.00001V7.25001H21.6V8.00001ZM21.473 8.00001V8.75001H21.6V8.00001V7.25001H21.473V8.00001ZM2.60001 8.00001V8.75001H5.84265V8.00001V7.25001H2.60001V8.00001ZM5.84265 8.00001V8.75001H19.6001V8.00001V7.25001H5.84265V8.00001ZM9.84265 4.00002L9.31232 3.46969L5.31232 7.46968L5.84265 8.00001L6.37298 8.53034L10.373 4.53035L9.84265 4.00002ZM3.72703 8.00001V8.75001H5.84265V8.00001V7.25001H3.72703V8.00001Z" fill="white"/>
</svg>
