<svg width="24" height="24" viewBox="0 0 24 24" fill="none" xmlns="http://www.w3.org/2000/svg">
<path d="M4.38754 21.2632L4.77941 20.6237L4.77941 20.6237L4.38754 21.2632ZM2.73683 19.6125L3.37631 19.2206L3.37631 19.2206L2.73683 19.6125ZM21.2632 19.6125L20.6237 19.2206L20.6237 19.2206L21.2632 19.6125ZM19.6125 21.2632L19.2206 20.6237L19.2206 20.6237L19.6125 21.2632ZM19.6125 5.7368L19.2206 6.37628L19.2206 6.37628L19.6125 5.7368ZM21.2632 7.38751L20.6237 7.77938L20.6237 7.77938L21.2632 7.38751ZM4.38754 5.7368L4.77941 6.37628L4.77941 6.37628L4.38754 5.7368ZM2.73683 7.38751L3.37631 7.77938L3.37631 7.77938L2.73683 7.38751ZM18.4768 2.54645L19.0181 2.02728L19.0181 2.02728L18.4768 2.54645ZM3.84425 2.89079L4.29709 3.48865L4.29709 3.48865L3.84425 2.89079ZM2.85447 3.92267L3.46979 4.35148L2.85447 3.92267ZM19 5.13032L19.75 5.13032L19.75 5.12662L19 5.13032ZM18.3637 13.6137C18.7779 13.6137 19.1137 13.2779 19.1137 12.8637C19.1137 12.4494 18.7779 12.1137 18.3637 12.1137V13.6137ZM15.6364 12.1137C15.2222 12.1137 14.8864 12.4494 14.8864 12.8637C14.8864 13.2779 15.2222 13.6137 15.6364 13.6137V12.1137ZM10.5 5V5.75H13.5V5V4.25H10.5V5ZM13.5 22V21.25H10.5V22V22.75H13.5V22ZM10.5 22V21.25C8.84879 21.25 7.66303 21.2492 6.73812 21.1613C5.82436 21.0744 5.24294 20.9078 4.77941 20.6237L4.38754 21.2632L3.99566 21.9027C4.73448 22.3554 5.57259 22.5572 6.59614 22.6545C7.60852 22.7508 8.87784 22.75 10.5 22.75V22ZM2.00003 13.5H1.25003C1.25003 15.1222 1.24924 16.3915 1.3455 17.4039C1.44282 18.4274 1.6446 19.2655 2.09735 20.0044L2.73683 19.6125L3.37631 19.2206C3.09226 18.7571 2.92564 18.1757 2.83876 17.2619C2.75082 16.337 2.75003 15.1512 2.75003 13.5H2.00003ZM4.38754 21.2632L4.77941 20.6237C4.20755 20.2733 3.72674 19.7925 3.37631 19.2206L2.73683 19.6125L2.09735 20.0044C2.57147 20.7781 3.22197 21.4286 3.99566 21.9027L4.38754 21.2632ZM13.5 22V22.75C15.1222 22.75 16.3915 22.7508 17.4039 22.6545C18.4275 22.5572 19.2656 22.3554 20.0044 21.9027L19.6125 21.2632L19.2206 20.6237C18.7571 20.9078 18.1757 21.0744 17.2619 21.1613C16.337 21.2492 15.1513 21.25 13.5 21.25V22ZM21.2632 19.6125L20.6237 19.2206C20.2733 19.7925 19.7925 20.2733 19.2206 20.6237L19.6125 21.2632L20.0044 21.9027C20.7781 21.4286 21.4286 20.7781 21.9027 20.0044L21.2632 19.6125ZM19.6125 5.7368L19.2206 6.37628C19.7925 6.72672 20.2733 7.20752 20.6237 7.77938L21.2632 7.38751L21.9027 6.99563C21.4286 6.22194 20.7781 5.57144 20.0044 5.09732L19.6125 5.7368ZM10.5 5V4.25C8.87784 4.25 7.60852 4.24921 6.59614 4.34547C5.57259 4.44279 4.73448 4.64457 3.99566 5.09732L4.38754 5.7368L4.77941 6.37628C5.24294 6.09223 5.82436 5.92561 6.73812 5.83873C7.66303 5.75079 8.84879 5.75 10.5 5.75V5ZM2.00003 13.5H2.75003C2.75003 11.8488 2.75082 10.663 2.83876 9.73809C2.92564 8.82434 3.09226 8.24291 3.37631 7.77938L2.73683 7.38751L2.09735 6.99563C1.6446 7.73445 1.44282 8.57256 1.3455 9.59611C1.24924 10.6085 1.25003 11.8778 1.25003 13.5H2.00003ZM4.38754 5.7368L3.99566 5.09732C3.22197 5.57144 2.57147 6.22194 2.09735 6.99563L2.73683 7.38751L3.37631 7.77938C3.72674 7.20752 4.20755 6.72672 4.77941 6.37628L4.38754 5.7368ZM10.0531 2V2.75H15.4218V2V1.25H10.0531V2ZM15.4218 2V2.75C16.2875 2.75 16.8582 2.75173 17.2814 2.81105C17.6797 2.86687 17.8346 2.96039 17.9355 3.06562L18.4768 2.54645L19.0181 2.02728C18.5948 1.58606 18.0659 1.40635 17.4896 1.32557C16.9381 1.24827 16.2434 1.25 15.4218 1.25V2ZM10.0531 2V1.25C8.3929 1.25 7.08497 1.24888 6.04731 1.36609C4.99369 1.4851 4.12972 1.7337 3.3914 2.29293L3.84425 2.89079L4.29709 3.48865C4.73482 3.15709 5.29767 2.9603 6.21567 2.85661C7.14962 2.75112 8.35809 2.75 10.0531 2.75V2ZM2.00003 10.3956H2.75003C2.75003 8.63063 2.75098 7.36468 2.85282 6.38472C2.95338 5.41704 3.14552 4.81679 3.46979 4.35148L2.85447 3.92267L2.23915 3.49385C1.70898 4.25462 1.4739 5.14188 1.36085 6.22968C1.24908 7.3052 1.25003 8.6627 1.25003 10.3956H2.00003ZM3.84425 2.89079L3.3914 2.29293C2.94809 2.62872 2.55947 3.03422 2.23915 3.49385L2.85447 3.92267L3.46979 4.35148C3.70137 4.01918 3.98078 3.72823 4.29709 3.48865L3.84425 2.89079ZM19 5.13032L19.75 5.12662C19.7467 4.44995 19.7322 3.86358 19.6475 3.37747C19.5594 2.87228 19.3854 2.41025 19.0181 2.02728L18.4768 2.54645L17.9355 3.06562C18.0289 3.16295 18.1131 3.30988 18.1698 3.63506C18.2298 3.97932 18.2466 4.44473 18.25 5.13403L19 5.13032ZM2.00003 10.3956H1.25003C1.25003 11.3713 1.22987 12.2642 1.25029 13.0202L2.00001 13L2.74974 12.9798C2.72998 12.2482 2.75003 11.424 2.75003 10.3956H2.00003ZM21.5 15.5909V14.8409H15.6364V15.5909V16.3409H21.5V15.5909ZM12.9091 12.8637H12.1591C12.1591 14.7841 13.7159 16.3409 15.6364 16.3409V15.5909V14.8409C14.5444 14.8409 13.6591 13.9557 13.6591 12.8637H12.9091ZM12.9091 12.8637H13.6591C13.6591 11.7716 14.5444 10.8864 15.6364 10.8864V10.1364V9.38638C13.7159 9.38638 12.1591 10.9432 12.1591 12.8637H12.9091ZM18.3637 12.8637V12.1137H15.6364V12.8637V13.6137H18.3637V12.8637ZM13.5 5V5.75C14.8846 5.75 15.9449 5.75032 16.8035 5.8033C17.6613 5.85623 18.261 5.95942 18.7338 6.13895L19 5.43781L19.2663 4.73667C18.5862 4.47839 17.8119 4.36267 16.8959 4.30615C15.9807 4.24968 14.8674 4.25 13.5 4.25V5ZM19 5.43781L18.7338 6.13895C18.9108 6.20619 19.071 6.2846 19.2206 6.37628L19.6125 5.7368L20.0044 5.09732C19.771 4.95427 19.5261 4.83534 19.2663 4.73667L19 5.43781ZM19 5.13032H18.25V5.43781H19H19.75V5.13032H19ZM15.6364 10.1364V10.8864H21.9444V10.1364V9.38638H15.6364V10.1364ZM22 13.5H22.75C22.75 12.1255 22.7504 11.0077 22.693 10.0896L21.9444 10.1364L21.1959 10.1832C21.2497 11.0439 21.25 12.108 21.25 13.5H22ZM21.9444 10.1364L22.693 10.0896C22.6145 8.83476 22.4247 7.84749 21.9027 6.99563L21.2632 7.38751L20.6237 7.77938C20.9527 8.3161 21.1224 9.00707 21.1959 10.1832L21.9444 10.1364ZM22 13.5H21.25C21.25 14.2875 21.25 14.9722 21.2399 15.5785L21.9898 15.5909L22.7397 15.6034C22.7501 14.9821 22.75 14.2839 22.75 13.5H22ZM21.9898 15.5909L21.2399 15.5785C21.2074 17.537 21.0635 18.5031 20.6237 19.2206L21.2632 19.6125L21.9027 20.0044C22.5829 18.8944 22.7077 17.5313 22.7397 15.6034L21.9898 15.5909ZM21.5 15.5909V16.3409H21.9898V15.5909V14.8409H21.5V15.5909Z" fill="white"/>
</svg>
